{"title":"Never Surrender.2009.DVDRip.XVid.AC3(5.1).SWESUB.avi","uid":5500153,"size":1463719534,"categoryP":"video","categoryS":"movies","magnet":"?xt=urn:btih:f59e10cd09c7440973c1d3cba65e82f856c0d67e&amp;dn=Never+Surrender.2009.DVDRip.XVid.AC3%285.1%29.SWESUB.avi&amp;tr=udp%3A%2F%2Ftracker.openbittorrent.com%3A80&amp;tr=udp%3A%2F%2Fopen.demonii.com%3A1337&amp;tr=udp%3A%2F%2Ftracker.coppersurfer.tk%3A6969&amp;tr=udp%3A%2F%2Fexodus.desync.com%3A6969","seeders":5,"leechers":1,"uploader":"Zen_Bud","files":-1,"time":1271494780,"description":"General\nComplete name                    : Never Surrender.avi\nFormat                           : AVI\nFormat/Info                      : Audio Video Interleave\nFile size                        : 1.36 GiB\nDuration                         : 1h 24mn\nOverall bit rate                 : 2 321 Kbps\n\nVideo\nID                               : 0\nFormat                           : MPEG-4 Visual\nCodec ID                         : XVID\nCodec ID/Hint                    : XviD\nDuration                         : 1h 24mn\nBit rate                         : 1 862 Kbps\nWidth                            : 718 pixels\nHeight                           : 576 pixels\nDisplay aspect ratio             : 16:9\nResolution                       : 8 bits\nColorimetry                      : 4:2:0\nScan type                        : Progressive\nBits/(Pixel*Frame)               : 0.180\nStream size                      : 1.09 GiB (80%)\nWriting library                  : XviD 1.1.2 (UTC 2006-11-01)\n\nAudio\nID                               : 1\nFormat                           : AC-3\nFormat/Info                      : Audio Coding 3\nCodec ID                         : 2000\nDuration                         : 1h 24mn\nBit rate mode                    : Constant\nBit rate                         : 448 Kbps\nChannel(s)                       : 6 channels\nChannel positions                : Front: L C R, Side: L R, LFE\nSampling rate                    : 48.0 KHz\nStream size                      : 269 MiB (19%)\nAlignment                        : Aligned on interleaves\n\n\n","torrent":{"xt":"urn:btih:f59e10cd09c7440973c1d3cba65e82f856c0d67e","amp;dn":"Never+Surrender.2009.DVDRip.XVid.AC3%285.1%29.SWESUB.avi","amp;tr":["udp%3A%2F%2Ftracker.openbittorrent.com%3A80","udp%3A%2F%2Fopen.demonii.com%3A1337","udp%3A%2F%2Ftracker.coppersurfer.tk%3A6969","udp%3A%2F%2Fexodus.desync.com%3A6969"],"infoHash":"f59e10cd09c7440973c1d3cba65e82f856c0d67e","infoHashBuffer":{"type":"Buffer","data":[245,158,16,205,9,199,68,9,115,193,211,203,166,94,130,248,86,192,214,126]},"announce":[],"urlList":[]}}